<svg xmlns="http://www.w3.org/2000/svg" viewBox="0 0 512 512">
  <defs>
    <linearGradient id="bg" x1="0" y1="0" x2="1" y2="1">
      <stop offset="0" stop-color="#0B2848"/>
      <stop offset="1" stop-color="#071B33"/>
    </linearGradient>
    <linearGradient id="v1" x1="0" y1="0" x2="1" y2="1">
      <stop offset="0" stop-color="#00C9BD"/>
      <stop offset="1" stop-color="#00A79D"/>
    </linearGradient>
    <linearGradient id="v2" x1="0" y1="0" x2="1" y2="1">
      <stop offset="0" stop-color="#FFC928"/>
      <stop offset="1" stop-color="#F37021"/>
    </linearGradient>
  </defs>
  <rect width="512" height="512" fill="url(#bg)"/>
  <circle cx="368" cy="152" r="20" fill="#FFC928" opacity="0.9"/>
  <path d="M152 182 L226 366 Q240 396 258 366 L272 332 L216 182 Q209 165 191 165 L169 165 Q146 165 152 182 Z" fill="url(#v1)"/>
  <path d="M362 182 L288 366 Q274 396 256 366 L248 348 L298 182 Q305 165 323 165 L345 165 Q368 165 362 182 Z" fill="url(#v2)"/>
</svg>
